<?xml version="1.0" standalone="no"?>
<!DOCTYPE svg PUBLIC "-//W3C//DTD SVG 20010904//EN"
 "http://www.w3.org/TR/2001/REC-SVG-20010904/DTD/svg10.dtd">
<svg version="1.0" xmlns="http://www.w3.org/2000/svg"
 width="500.000000pt" height="164.000000pt" viewBox="0 0 500.000000 164.000000"
 preserveAspectRatio="xMidYMid meet">
<metadata>
Created by potrace 1.16, written by Peter Selinger 2001-2019
</metadata>
<g transform="translate(0.000000,164.000000) scale(0.100000,-0.100000)"
fill="#000000" stroke="none">
<path d="M500 922 c0 -596 2 -683 16 -710 21 -43 40 -52 75 -35 44 22 101 3
125 -42 l19 -35 546 0 546 0 23 25 c25 27 67 33 101 15 13 -8 25 -7 39 0 20
11 20 21 20 735 l0 725 -755 0 -755 0 0 -678z m1006 383 c26 -26 38 -89 29
-145 l-7 -40 -61 -2 -62 -1 55 -6 55 -6 3 -49 c4 -54 -12 -96 -37 -97 -10 0
-11 -3 -4 -5 7 -3 21 0 32 6 19 10 21 8 21 -16 0 -17 -13 -40 -39 -65 -41 -41
-70 -49 -91 -25 -6 8 -26 20 -44 26 -29 9 -32 14 -29 38 l5 27 -17 -22 c-19
-28 -41 -29 -68 -5 -19 16 -20 16 -15 -5 5 -18 0 -24 -25 -33 -17 -5 -38 -17
-48 -26 -38 -35 -129 34 -129 99 0 20 3 27 8 19 10 -15 67 -32 102 -31 15 1 8
5 -19 10 -67 13 -82 32 -79 98 l3 56 67 3 c69 3 114 -10 102 -30 -4 -7 -3 -8
4 -4 26 16 6 -67 -24 -99 -13 -14 -19 -25 -14 -25 17 0 60 67 63 100 7 56 61
65 73 11 14 -64 54 -125 71 -108 3 4 1 7 -5 7 -23 0 -48 74 -43 127 1 6 16 15
34 19 17 4 26 9 20 11 -7 3 -27 -3 -44 -11 -24 -12 -35 -13 -46 -5 -10 9 -20
9 -38 1 -19 -9 -31 -8 -52 3 -17 9 -57 15 -104 15 l-76 0 -7 39 c-10 63 16
153 46 164 7 2 103 4 212 4 192 0 201 -1 222 -22z m-295 -667 c28 -8 38 -16
35 -27 -15 -55 -16 -82 -3 -103 13 -20 12 -30 -8 -88 -22 -63 -23 -64 -34 -38
-36 93 -62 268 -40 268 6 0 29 -5 50 -12z m194 -55 c-6 -66 -25 -146 -46 -201
-11 -26 -12 -25 -33 38 -20 58 -21 67 -8 87 13 21 11 67 -4 107 -3 8 10 16 33
23 67 19 65 20 58 -54z"/>
</g>
</svg>
